<svg width="16" height="16" viewBox="0 0 16 16" fill="none" xmlns="http://www.w3.org/2000/svg">
<path fill-rule="evenodd" clip-rule="evenodd" d="M12.2187 4.625C12.2187 6.95495 10.3299 8.84375 8 8.84375C5.67005 8.84375 3.78125 6.95495 3.78125 4.625C3.78125 2.29505 5.67005 0.40625 8 0.40625C10.3299 0.40625 12.2187 2.29505 12.2187 4.625ZM10.5312 4.625C10.5312 6.02297 9.39797 7.15625 8 7.15625C6.60203 7.15625 5.46875 6.02297 5.46875 4.625C5.46875 3.22703 6.60203 2.09375 8 2.09375C9.39797 2.09375 10.5312 3.22703 10.5312 4.625Z" fill="#DADADA"/>
<path fill-rule="evenodd" clip-rule="evenodd" d="M8.00001 9.6875C5.79146 9.6875 4.07984 9.96991 2.89203 10.5925C2.28535 10.9105 1.79437 11.3284 1.45798 11.8597C1.11961 12.3941 0.968765 12.9946 0.968765 13.625V13.9062C0.968759 14.9936 1.8502 15.875 2.93751 15.875H13.0625C14.1502 15.875 15.0313 14.9928 15.0313 13.9058V13.625C15.0313 12.9945 14.8804 12.3942 14.542 11.8597C14.2057 11.3284 13.7147 10.9105 13.108 10.5925C11.9202 9.96991 10.2086 9.6875 8.00001 9.6875ZM2.65627 13.625C2.65627 13.2711 2.73802 12.9926 2.88376 12.7624C3.03148 12.529 3.27612 12.2965 3.67548 12.0872C4.49974 11.6551 5.88187 11.375 8.00001 11.375C10.1182 11.375 11.5003 11.6551 12.3245 12.0872C12.7239 12.2965 12.9685 12.529 13.1163 12.7624C13.262 12.9926 13.3438 13.2711 13.3438 13.625V13.9058C13.3438 14.0616 13.2174 14.1875 13.0625 14.1875H2.93751C2.78218 14.1875 2.65626 14.0616 2.65627 13.9062L2.65627 13.625Z" fill="#DADADA"/>
</svg>
